<?xml version="1.0" standalone="no"?>
<!DOCTYPE svg PUBLIC "-//W3C//DTD SVG 20010904//EN"
 "http://www.w3.org/TR/2001/REC-SVG-20010904/DTD/svg10.dtd">
<svg version="1.0" xmlns="http://www.w3.org/2000/svg"
 width="840.000000pt" height="676.000000pt" viewBox="0 0 840.000000 676.000000"
 preserveAspectRatio="xMidYMid meet">

<g transform="translate(0.000000,676.000000) scale(0.100000,-0.100000)"
fill="#000000" stroke="none">
<path d="M4134 6341 c-41 -25 -2775 -2854 -2796 -2894 -22 -42 -22 -94 0 -134
9 -18 312 -337 672 -710 360 -373 980 -1014 1378 -1425 398 -412 736 -755 752
-763 39 -20 89 -19 125 4 42 25 2775 2853 2798 2894 9 17 17 48 17 67 0 19 -8
50 -17 67 -15 26 -719 760 -1753 1828 -86 88 -351 362 -589 608 -239 246 -446
454 -462 462 -38 20 -88 19 -125 -4z m174 -538 c65 -36 2366 -2275 2400 -2335
14 -26 22 -58 22 -88 0 -30 -8 -62 -22 -88 -34 -60 -2335 -2299 -2401 -2335
-45 -25 -60 -28 -105 -24 -29 3 -67 14 -84 25 -17 11 -559 534 -1206 1163
-852 830 -1180 1155 -1193 1184 -23 50 -24 93 -3 144 12 31 254 272 1082 1079
1339 1303 1314 1279 1354 1291 59 17 103 12 156 -16z"/>
<path d="M1940 3520 c0 -6 19 -76 41 -155 41 -142 42 -145 70 -145 31 0 35 10
59 135 20 108 22 105 60 -78 11 -57 12 -58 42 -55 31 3 31 4 69 143 22 77 39
146 39 152 0 17 -56 17 -63 1 -2 -7 -12 -57 -22 -110 -10 -54 -21 -96 -23 -93
-3 2 -14 51 -26 107 -22 102 -23 103 -53 106 -36 4 -34 7 -59 -121 -9 -48 -20
-85 -23 -81 -3 3 -15 49 -26 102 -21 97 -21 97 -53 100 -19 2 -32 -1 -32 -8z"/>
<path d="M2435 3520 c-96 -39 -115 -202 -31 -279 38 -35 122 -41 169 -12 91
56 92 228 3 282 -32 20 -105 25 -141 9z m96 -50 c17 0 49 -64 49 -98 0 -78
-53 -123 -115 -98 -27 12 -36 23 -45 55 -16 61 2 118 43 136 18 8 38 12 45 10
8 -3 18 -5 23 -5z"/>
<path d="M2698 3524 c-5 -4 -8 -74 -8 -156 l0 -148 35 0 35 0 0 60 0 60 44 0
c52 0 64 -12 68 -70 3 -44 4 -45 40 -48 37 -3 38 -3 28 23 -6 14 -10 41 -10
59 0 19 -7 39 -15 46 -14 12 -13 15 5 35 26 27 26 85 1 116 -17 22 -28 24
-118 27 -54 2 -101 0 -105 -4z m180 -83 c5 -33 -21 -51 -75 -51 l-43 0 0 40 0
41 58 -3 c52 -3 57 -5 60 -27z"/>
<path d="M3000 3375 l0 -155 30 0 c29 0 30 1 30 48 0 35 5 54 19 66 18 17 21
15 66 -48 44 -62 49 -66 86 -66 l40 0 -66 85 -67 85 20 27 c11 16 36 44 56 62
20 19 36 39 36 43 0 4 -14 8 -32 8 -26 0 -42 -11 -94 -67 l-63 -68 -1 68 0 67
-30 0 -30 0 0 -155z"/>
<path d="M3420 3375 l0 -155 30 0 30 0 0 155 0 155 -30 0 -30 0 0 -155z"/>
<path d="M3540 3376 l0 -156 30 0 29 0 3 103 3 102 60 -102 c56 -97 61 -103
92 -103 l33 0 0 155 0 155 -30 0 -30 0 0 -102 c0 -69 -3 -99 -10 -92 -6 6 -34
50 -63 100 -47 80 -56 89 -85 92 l-32 3 0 -155z"/>
<path d="M3970 3376 l0 -156 30 0 c30 0 30 1 30 55 l0 55 58 0 c31 0 64 6 73
13 45 34 52 110 15 153 -21 26 -30 28 -115 32 l-91 4 0 -156z m158 82 c33 -33
-1 -78 -59 -78 l-39 0 0 45 0 45 43 0 c24 0 48 -5 55 -12z"/>
<path d="M4250 3375 l0 -155 35 0 35 0 0 60 0 60 43 0 c55 0 67 -13 67 -72 0
-48 0 -48 34 -48 l33 0 -5 53 c-2 28 -10 62 -18 74 -13 20 -12 25 6 43 23 23
26 76 6 102 -21 28 -62 38 -152 38 l-84 0 0 -155z m180 76 c13 -25 13 -27 -6
-45 -9 -10 -33 -16 -60 -16 l-44 0 0 40 0 40 50 0 c38 0 52 -4 60 -19z"/>
<path d="M4612 3510 c-38 -24 -72 -89 -72 -140 0 -51 34 -116 72 -140 74 -45
173 -15 208 63 11 23 20 58 20 77 0 51 -34 116 -72 140 -20 12 -50 20 -78 20
-28 0 -58 -8 -78 -20z m136 -66 c31 -36 31 -112 -1 -150 -54 -63 -137 -18
-137 74 0 99 78 141 138 76z"/>
<path d="M4942 3510 c-38 -24 -72 -89 -72 -140 0 -51 34 -116 72 -140 43 -26
107 -26 141 0 21 17 26 18 31 5 3 -8 15 -15 26 -15 18 0 20 6 20 80 l0 80 -65
0 c-63 0 -65 -1 -65 -25 0 -22 4 -25 35 -25 38 0 40 -2 25 -30 -13 -25 -65
-41 -94 -30 -59 22 -77 124 -32 176 31 36 90 39 116 6 20 -24 70 -30 70 -9 0
21 -29 56 -60 72 -41 21 -109 19 -148 -5z"/>
<path d="M5220 3376 l0 -156 30 0 30 0 0 61 0 60 53 -3 c52 -3 52 -3 55 -38 5
-73 10 -80 47 -80 32 0 34 2 30 28 -2 15 -7 44 -10 65 -3 21 -13 41 -21 44
-11 4 -9 12 12 36 20 24 24 37 20 61 -12 59 -35 71 -146 74 l-100 4 0 -156z
m178 62 c4 -33 -24 -50 -76 -46 -35 3 -37 5 -40 41 l-3 38 58 -3 c55 -3 58 -5
61 -30z"/>
<path d="M5527 3523 c-4 -3 -7 -73 -7 -155 l0 -148 120 0 120 0 0 25 c0 25 -1
25 -85 25 l-85 0 0 40 0 40 75 0 c73 0 75 1 75 25 0 24 -2 25 -75 25 l-75 0 0
35 0 34 78 3 c76 3 77 3 80 31 l3 27 -109 0 c-60 0 -112 -3 -115 -7z"/>
<path d="M5838 3515 c-33 -19 -52 -72 -39 -108 12 -31 33 -44 103 -58 61 -13
78 -24 78 -50 0 -43 -78 -52 -116 -14 -24 24 -74 35 -74 15 0 -24 26 -63 51
-76 36 -18 112 -18 149 1 36 19 50 43 50 89 0 40 -31 71 -83 81 -77 15 -97 26
-97 51 0 17 7 25 25 30 36 9 76 -4 82 -26 4 -14 14 -20 34 -20 37 0 39 27 6
66 -20 23 -33 28 -83 31 -40 2 -68 -2 -86 -12z"/>
<path d="M6111 3504 c-25 -21 -31 -33 -31 -65 0 -50 22 -69 102 -89 34 -8 66
-23 72 -32 17 -27 -5 -52 -47 -56 -29 -3 -42 2 -61 22 -14 16 -34 26 -50 26
-24 0 -26 -3 -21 -22 4 -13 18 -34 31 -48 21 -22 33 -25 93 -25 59 0 73 4 94
23 30 28 39 65 25 103 -10 28 -36 42 -135 68 -30 8 -43 17 -43 29 0 47 67 57
104 17 30 -32 66 -34 66 -2 0 47 -46 77 -116 77 -42 0 -59 -5 -83 -26z"/>
</g>
</svg>
